<?xml version="1.0" encoding="UTF-8" standalone="no"?> <!-- Created with Vectornator for iOS (http://vectornator.io/) --><!DOCTYPE svg PUBLIC "-//W3C//DTD SVG 1.1//EN" "http://www.w3.org/Graphics/SVG/1.1/DTD/svg11.dtd">
<svg height="100%" style="fill-rule:nonzero;clip-rule:evenodd;stroke-linecap:round;stroke-linejoin:round;" xmlns:xlink="http://www.w3.org/1999/xlink" xmlns="http://www.w3.org/2000/svg" xml:space="preserve" width="100%" xmlns:vectornator="http://vectornator.io" version="1.1" viewBox="0 0 4900 4900">
<metadata>
<vectornator:setting key="SnapToEdges" value="0"/>
<vectornator:setting key="OutlineMode" value="0"/>
<vectornator:setting key="TimeLapseWatermarkDisabled" value="0"/>
<vectornator:setting key="SnapToGuides" value="1"/>
<vectornator:setting key="PencilOnly" value="0"/>
<vectornator:setting key="DynamicGuides" value="0"/>
<vectornator:setting key="IsolateActiveLayer" value="0"/>
<vectornator:setting key="SnapToGrid" value="0"/>
<vectornator:setting key="GuidesVisible" value="1"/>
<vectornator:setting key="SnapToPoints" value="0"/>
<vectornator:setting key="DisplayWhiteBackground" value="0"/>
<vectornator:setting key="CMYKEnabledKey" value="0"/>
<vectornator:setting key="DimensionsVisible" value="1"/>
<vectornator:setting key="Units" value="Points"/>
<vectornator:setting key="RulersVisible" value="1"/>
<vectornator:setting key="doHistoryDisabled" value="0"/>
</metadata>
<defs/>
<g id="XMLID_1_" vectornator:layerName="XMLID_1_">
<path d="M0+0L4900+0L4900+0L4900+4900L4900+4900L0+4900L0+4900L0+0L0+0Z" opacity="1" fill="#ffffff"/>
<path d="M2796.68+3254.71C2831.43+3266.29+2850.73+3254.71+2867.42+3250.85C2884.1+3246.99+2873.9+3250.85+2897.06+3250.85C2920.22+3250.85+2916.36+3227.68+2908.64+3223.82C2900.92+3219.96+2893.2+3216.1+2881.62+3208.38C2870.04+3200.66+2850.74+3204.52+2850.74+3204.52C2850.74+3204.52+2765.81+3162.05+2758.09+3135.03C2750.37+3108.01+2823.71+2969.03+2850.74+2914.98C2877.76+2860.93+2889.34+2787.58+2897.06+2779.86C2904.78+2772.14+2912.51+2768.28+2912.51+2733.54C2912.51+2698.79+2893.2+2691.07+2877.76+2664.05C2862.32+2637.02+2796.69+2567.53+2753.47+2527.08C2710.24+2486.62+2642.27+2444+2642.27+2444C2665.69+2425.26+2673.47+2399.44+2676.84+2380.28C2687.21+2377.66+2697.79+2374.2+2708.49+2369.37C2716.47+2365.72+2724.53+2361.25+2732.33+2355.41C2740.1+2349.57+2747.63+2342.14+2753.77+2332.92C2756.74+2328.25+2759.48+2323.25+2761.44+2317.83C2762.56+2315.09+2763.23+2312.53+2763.98+2309.91C2764.79+2307.28+2765.21+2304.68+2765.74+2302.04C2767.63+2291.54+2767.78+2281.21+2766.99+2271.28C2765.4+2252.06+2760.6+2234.14+2754.61+2216.77C2768.55+2206.12+2791.08+2190.95+2804.41+2177.63C2807.54+2174.49+2810.78+2170.23+2814+2165.31C2814.66+2166.06+2815.3+2166.81+2815.97+2167.55C2825.95+2178.64+2836.71+2189.58+2848.8+2199.98C2854.98+2205.11+2861.25+2210.23+2868.24+2214.94L2870.82+2216.74L2873.51+2218.46L2878.94+2221.87C2882.75+2224.02+2886.46+2226.24+2890.54+2228.16C2894.47+2230.22+2898.75+2231.95+2902.97+2233.72C2907.37+2235.3+2911.72+2236.94+2916.4+2238.13C2925.61+2240.65+2935.45+2242.33+2945.53+2242.48C2948.03+2242.63+2950.55+2242.51+2953.08+2242.4C2955.6+2242.3+2958.15+2242.21+2960.53+2241.89C2965.37+2241.41+2970.25+2240.59+2975.11+2239.52C2984.84+2237.35+2994.52+2233.87+3003.55+2229.16C3012.6+2224.47+3020.98+2218.59+3028.39+2211.98C3035.82+2205.36+3042.31+2198.03+3047.94+2190.37C3055.91+2179.51+3062.17+2168.05+3067.28+2156.38C3069.88+2157.74+3072.54+2159.02+3075.22+2160.26C3080.62+2162.56+3086.13+2164.7+3091.9+2166.24C3103.34+2169.52+3115.38+2170.92+3127.12+2170.72C3138.92+2170.52+3150.19+2168.83+3161.51+2165.59C3172.75+2162.34+3183.79+2157.61+3193.79+2151.39C3203.81+2145.2+3212.97+2137.81+3220.85+2129.58C3227.11+2123.11+3234.47+2114.34+3241.4+2103.24C3242.73+2101.14+3244.03+2098.94+3245.33+2096.69C3246.29+2097.19+3247.24+2097.7+3248.21+2098.18C3254.61+2101.34+3261.29+2103.98+3268.09+2106.18C3281.73+2110.55+3295.95+2112.69+3309.84+2112.95C3323.72+2113.09+3337.3+2111.53+3350.04+2108.52C3353.2+2107.72+3356.41+2107.02+3359.47+2106.07L3364.09+2104.72C3365.63+2104.25+3367.16+2103.7+3368.69+2103.2C3374.81+2101.19+3380.85+2098.68+3386.78+2096.02C3398.6+2090.43+3409.98+2083.59+3420.11+2075.17C3430.3+2066.85+3439.19+2057.1+3446.52+2046.69C3450.15+2041.45+3453.41+2036.06+3456.29+2030.59C3459.1+2025.1+3461.65+2019.56+3463.74+2013.98C3467.21+2004.81+3469.75+1995.64+3471.53+1986.63C3482.71+1979.04+3476.13+1969.15+3476.13+1969.15C3476.13+1969.15+3483.85+1969.15+3484.94+1960.82C3486.02+1952.5+3480+1945.99+3480+1945.99C3480+1945.99+3487.72+1938.27+3483.86+1930.54C3482.41+1927.66+3478.28+1924.78+3473.68+1922.3C3473.6+1921.62+3473.53+1920.92+3473.45+1920.25C3471.17+1901.73+3466.86+1885.06+3461.58+1870.25C3456.65+1856.66+3450.83+1844.66+3444.02+1834.17C3408.67+1768.41+3337.87+1732.88+3332.59+1727.6C3327.05+1722.07+3330.8+1710.85+3312.29+1703.61C3269.84+1687+3286.45+1714.69+3200.17+1701.77C3189.68+1700.19+3190.48+1698.07+3175.71+1701.77C3160.95+1705.46+3160.95+1734.99+3165.14+1738.58C3166.73+1739.94+3168.11+1740.28+3169.69+1740.17C3168.99+1747.34+3169.24+1764.59+3184.94+1777.44C3184.94+1777.44+3176.87+1762.18+3180.9+1747.66C3180.9+1747.66+3181.25+1744.3+3184.94+1745.18C3188.63+1746.06+3190.48+1753.44+3190.48+1753.44C3190.48+1753.44+3190.48+1747.91+3197.86+1746.06C3205.25+1744.21+3207.09+1749.75+3207.09+1749.75C3207.09+1749.75+3209.51+1745.78+3215.87+1744.1C3236.67+1748.59+3258.77+1755.37+3258.77+1762.67C3258.77+1766.56+3254.16+1770.7+3247.35+1774.72C3243.77+1774.24+3240.32+1773.75+3240.32+1773.75C3240.32+1773.75+3238.47+1779.29+3234.78+1779.29C3231.09+1779.29+3225.1+1777.44+3225.1+1777.44C3225.1+1777.44+3220.01+1784.83+3218.17+1784.83C3216.32+1784.83+3210.27+1781.13+3210.27+1781.13C3210.27+1781.13+3208.94+1790.36+3205.25+1790.36C3201.55+1790.36+3193.67+1784.83+3193.67+1784.83C3193.67+1784.83+3188.64+1795.9+3186.79+1795.9C3185.75+1795.9+3184.14+1797.64+3184.23+1800.15C3180.27+1802.72+3180.67+1805.17+3183.1+1808.82C3186.17+1813.43+3188.64+1814.36+3199.71+1814.36C3210.79+1814.36+3260.14+1800.56+3284.61+1803.28C3301.22+1805.13+3311.38+1803.74+3317.38+1801.9C3324.92+1799.58+3333.05+1799.85+3340.19+1803.21C3357.4+1811.32+3374.94+1826.44+3389.41+1853.89L3389.34+1854L3389.35+1854.01C3389.41+1854.1+3389.44+1854.07+3389.54+1854.14C3396.04+1866.52+3401.91+1881.39+3406.85+1899.27C3400.99+1901.72+3394.44+1904.55+3387.36+1907.38C3368.06+1915.1+3344.89+1938.26+3321.73+1942.13C3314.7+1943.3+3296.61+1945.54+3273.77+1948.2C3273.2+1943.78+3272.46+1939.25+3271.5+1934.61C3270.26+1928.71+3268.69+1922.62+3266.35+1916.15C3263.96+1909.67+3260.98+1902.79+3255.72+1895.21C3252.94+1891.38+3249.63+1887.4+3244.97+1883.48C3240.25+1879.57+3234+1875.8+3226.5+1873.69C3224.62+1873.2+3222.72+1872.71+3220.79+1872.44C3218.86+1872.19+3216.91+1872+3214.96+1871.91C3213.08+1871.9+3211.19+1871.97+3209.3+1872.11C3208.87+1872.15+3208.29+1872.18+3207.97+1872.23L3206.94+1872.38L3204.87+1872.71C3202.15+1873.11+3199.28+1873.92+3196.49+1874.78C3195.09+1875.22+3193.68+1875.82+3192.29+1876.39C3190.9+1876.95+3189.53+1877.57+3188.19+1878.32C3182.74+1881.08+3177.93+1884.91+3173.91+1888.99C3169.82+1893.13+3166.86+1897.52+3164.3+1901.92C3159.51+1910.65+3157.1+1919.07+3155.69+1926.9C3154.34+1934.73+3153.99+1942.12+3154.17+1949.25C3154.29+1953.36+3154.6+1957.38+3155.05+1961.34C3138.98+1963.04+3125.56+1964.44+3117.12+1965.29C3102.76+1966.72+3090.54+1970.29+3080.66+1974.21C3079.23+1968.83+3077.53+1963.35+3075.34+1957.67C3073.45+1952.76+3071.23+1947.71+3068.15+1942.33C3065.04+1936.98+3061.31+1931.24+3055.02+1925.17C3051.99+1922.2+3047.88+1919.04+3042.99+1916.36C3041.77+1915.7+3040.31+1915.06+3038.94+1914.46C3037.53+1913.87+3036.22+1913.3+3034.6+1912.84C3031.49+1911.9+3028.34+1911.16+3024.94+1910.88C3021.74+1910.48+3017.89+1910.61+3014.24+1911.03C3010.34+1911.64+3006.49+1912.6+3002.8+1914.24C2995.5+1917.34+2989.43+1922.46+2985.78+1926.99C2984.69+1928.23+2983.97+1929.27+2983.16+1930.41L2981.99+1932.12C2981.59+1932.71+2981.25+1933.25+2980.97+1933.76C2980.36+1934.81+2979.77+1935.87+2979.2+1936.94C2978.59+1938.06+2978.25+1938.93+2977.78+1939.95C2977.35+1940.92+2976.88+1941.96+2976.54+1942.88L2975.56+1945.62C2974.87+1947.52+2974.48+1949.11+2973.98+1950.85C2972.31+1957.36+2971.6+1963.06+2971.19+1968.49C2935.87+1965.74+2897.07+1973.01+2897.07+1973.01C2897.07+1973.01+2889.35+1969.15+2870.05+1953.7C2850.74+1938.26+2829.51+1936.33+2829.51+1936.33C2829.51+1936.33+2833.37+1932.47+2850.74+1930.54C2874.08+1927.94+2885.49+1938.26+2897.07+1926.68C2908.65+1915.1+2897.07+1899.66+2897.07+1895.8C2897.07+1891.94+2900.93+1891.94+2904.79+1888.08C2908.65+1884.22+2904.79+1876.49+2904.79+1876.49C2904.79+1876.49+2912.51+1876.49+2912.51+1872.63C2912.51+1868.77+2908.65+1857.19+2908.65+1853.33C2908.65+1849.47+2924.09+1849.47+2924.09+1841.75C2924.09+1834.03+2904.79+1810.87+2900.93+1807C2897.07+1803.14+2908.65+1783.84+2908.65+1772.26C2908.65+1766.91+2907.82+1761.56+2904.82+1753.06C2919.46+1751.96+2914.59+1740.13+2914.59+1740.13C2914.59+1740.13+2918.7+1739.6+2921.33+1732.39C2923.97+1725.18+2922.15+1723.24+2922.15+1723.24C2922.15+1723.24+2926.27+1721.64+2929.02+1713.15C2931.77+1704.67+2926.43+1697.73+2926.43+1697.73C2926.43+1697.73+2930.88+1692.47+2931.54+1685.15C2932.19+1677.83+2924.45+1675.55+2924.45+1675.55C2924.45+1675.55+2927.08+1668.34+2919.83+1660.57C2912.58+1652.8+2904.34+1656+2904.34+1656C2903.19+1646.74+2891.5+1644.23+2891.5+1644.23C2891.5+1644.23+2893.97+1638.85+2885.29+1632.84C2876.62+1626.82+2868.93+1630.06+2868.93+1630.06C2868.93+1630.06+2869.25+1626.4+2861.84+1620.46C2854.43+1614.52+2845.86+1621.39+2845.86+1621.39C2845.86+1621.39+2846.36+1615.9+2834.83+1611.56C2830.57+1609.96+2826.68+1610.57+2823.44+1611.97C2815.32+1605.78+2809.7+1614.28+2809.7+1614.28C2809.7+1614.28+2809.22+1610.65+2796.86+1610.07C2784.49+1609.49+2781.9+1616.12+2781.9+1616.12C2781.9+1616.12+2777.24+1611.2+2767.63+1614.32C2758.03+1617.44+2755.31+1626.21+2755.31+1626.21C2755.31+1626.21+2752.61+1621.86+2740.79+1623.42C2728.98+1624.99+2728.45+1636.14+2728.45+1636.14C2720.45+1637.21+2716.96+1641.01+2715.45+1644.5C2711.87+1643+2708.49+1642.53+2706.63+1644.66C2701.33+1650.69+2701.11+1659.86+2701.11+1659.86C2701.11+1659.86+2687.25+1653.92+2681.81+1662.01C2676.37+1670.09+2680.31+1676.03+2680.31+1676.03C2680.31+1676.03+2666.76+1681.41+2666.54+1690.58C2666.32+1699.75+2669.3+1701.77+2669.3+1701.77C2669.3+1701.77+2649.08+1704.94+2652.52+1711.51C2655.97+1718.09+2662.26+1723.49+2662.26+1723.49C2662.26+1723.49+2644.55+1732.11+2646.15+1738.58C2647.74+1745.05+2655.63+1756.93+2655.63+1756.93C2655.63+1756.93+2646.39+1763.6+2651.06+1770.51C2655.72+1777.42+2658.6+1779.05+2658.6+1779.05C2658.6+1779.05+2657.1+1793.07+2660.51+1796.85C2663.92+1800.63+2672.83+1806.85+2672.83+1806.85C2672.83+1806.85+2669.82+1825.68+2678.96+1832.04C2688.11+1838.4+2696.74+1843.27+2696.74+1843.27C2696.74+1843.27+2702.81+1857.84+2705.16+1857.3C2706.69+1856.94+2711.44+1858.78+2714.53+1860.09C2711.47+1870.49+2702.62+1882.49+2696.32+1891.93C2695.61+1893+2694.53+1893.97+2693.16+1894.85C2687.09+1887.95+2680.69+1881.17+2673.6+1874.61C2668.51+1869.84+2662.91+1865.22+2656.94+1860.79C2650.78+1856.41+2644.09+1852.24+2636.4+1848.7C2628.73+1845.19+2619.71+1842.43+2609.9+1841.56C2608.68+1841.46+2607.48+1841.29+2606.22+1841.28L2602.45+1841.29L2598.69+1841.39C2597.34+1841.53+2595.97+1841.69+2594.62+1841.88C2591.9+1842.23+2589.21+1842.66+2586.58+1843.43C2583.95+1844.16+2581.29+1844.81+2578.8+1845.89C2568.65+1849.71+2559.57+1855.98+2553.06+1864.35C2546.53+1872.71+2542.73+1882.94+2541.53+1893.45C2541.13+1896.07+2541.11+1898.73+2541.04+1901.38L2541.02+1903.37L2541.03+1904.36L2541.08+1905.2L2541.3+1908.52L2541.58+1911.82L2542+1914.72C2542.3+1916.6+2542.54+1918.62+2542.96+1920.36L2543.64+1923.51C2501.6+1941.68+2476.28+1992.32+2476.28+1992.32C2402.93+2023.2+2364.32+2100.41+2352.74+2108.13C2341.16+2115.85+2310.28+2119.72+2267.81+2146.74C2243.12+2162.45+2198.86+2206.87+2163.85+2242.82C2162.09+2237.82+2158.71+2233.37+2153.92+2230.48C2142.32+2223.46+2127.35+2227.61+2120.95+2239.39C2116.43+2247.72+2117.45+2257.55+2122.75+2264.7L2116.63+2275.13C2114.92+2275.31+2113.62+2275.95+2113.02+2277.07C2112.44+2278.13+2112.57+2279.47+2113.24+2280.91L2103.34+2297.77C2087.26+2302.9+2061.62+2306.6+2055.48+2312.74C2047.76+2320.46+2028.46+2347.48+2023.31+2355.45C2018.17+2363.42+2028.46+2374.51+2028.46+2374.51C2020.5+2382.47+2023.48+2392.24+2026.12+2397.58L2001.81+2389.5C1995.7+2386.18+1988.06+2388.44+1984.74+2394.55C1981.06+2401.33+1984.26+2410.01+1991.97+2412.55C1996.6+2414.08+2001.84+2412.67+2005.1+2409.05C2007.01+2406.93+2008.02+2404.46+2008.3+2401.98L2021.27+2409.02L1837.69+2744.32C1807+2800.38+1782.01+2859.38+1763.11+2920.43L1748.58+2968.36C1748.19+2969.66+1749.87+2970.57+1750.73+2969.52L1782.79+2931.13C1823.72+2882.04+1859.62+2828.96+1889.94+2772.7L2071.32+2436.22L2085.93+2444.16C2084+2445.75+2082.48+2447.94+2081.74+2450.7C2080.48+2455.41+2082.16+2460.57+2085.96+2463.62C2092.28+2468.7+2101.3+2466.66+2104.98+2459.88C2108.3+2453.77+2106.04+2446.13+2099.93+2442.81L2076.02+2423.71C2079.98+2424.27+2083.8+2424.7+2086.34+2424.7C2094.06+2424.7+2113.37+2409.25+2121.09+2393.81C2128.81+2378.37+2136.53+2351.35+2144.25+2339.77C2151.97+2328.19+2252.42+2283.87+2300.6+2256.77C2362.37+2222.02+2352.72+2235.54+2368.16+2220.09C2383.59+2204.65+2387.46+2196.93+2418.34+2193.07C2449.22+2189.21+2495.55+2142.88+2495.55+2142.88C2495.55+2142.88+2491.69+2154.47+2480.11+2193.07C2476.13+2206.34+2471.69+2225.09+2466.95+2244.61C2465.99+2244.86+2465.01+2245.14+2464+2245.42C2459.67+2246.68+2454.83+2248.28+2449.51+2250.44C2444.2+2252.61+2438.41+2255.31+2432.27+2259.05C2430.74+2259.98+2429.2+2261.04+2427.62+2262.1C2426.08+2263.27+2424.46+2264.36+2422.91+2265.73C2422.13+2266.39+2421.32+2267.04+2420.54+2267.76C2419.75+2268.52+2418.96+2269.29+2418.15+2270.07C2417.3+2270.87+2416.53+2271.84+2415.71+2272.76C2414.9+2273.69+2414.09+2274.63+2413.38+2275.67C2410.36+2279.68+2407.86+2284.4+2406.46+2289.68C2404.99+2294.94+2404.83+2300.71+2405.81+2306.52C2406.74+2311.54+2408.57+2316.54+2411.2+2321.33C2411.87+2322.49+2412.55+2323.82+2413.26+2324.83C2413.98+2325.88+2414.7+2326.93+2415.42+2327.99C2416.96+2329.97+2418.51+2332.04+2420.24+2333.83C2422.36+2336.17+2424.61+2338.34+2426.95+2340.4C2407.36+2353.47+2374.88+2368.69+2356.57+2397.68C2310.24+2471.03+2325.68+2544.38+2317.96+2571.41C2310.24+2598.43+2279.35+2687.22+2263.92+2733.55C2248.47+2779.87+2240.75+2845.5+2221.45+2864.81C2202.15+2884.11+2167.4+2880.25+2113.35+2911.13C2059.31+2942.02+1970.51+3053.97+1947.35+3077.14C1924.19+3100.3+1928.05+3088.72+1893.31+3108.02C1858.56+3127.32+1858.56+3158.2+1881.72+3177.51C1904.89+3196.81+1897.17+3200.67+1916.47+3231.55C1935.77+3262.44+1962.8+3258.58+1962.8+3258.58C1962.8+3258.58+1962.8+3258.58+1966.66+3270.16C1970.51+3281.74+1989.82+3270.16+1989.82+3270.16C2005.26+3285.6+2016.8+3275.47+2016.8+3275.47C2032.2+3288.5+2040.01+3270.16+2040.01+3270.16C2059.31+3285.6+2067.03+3262.44+2067.03+3262.44C2101.78+3274.02+2109.5+3243.14+2101.78+3235.42C2094.06+3227.7+2074.76+3227.7+2063.17+3219.97C2051.59+3212.25+1993.68+3150.48+1997.54+3138.9C2001.4+3127.32+2151.96+3061.7+2194.43+3042.39C2236.9+3023.09+2260.06+2992.21+2275.5+2984.48C2290.95+2976.76+2298.67+2984.48+2321.83+2976.76C2344.99+2969.04+2368.16+2930.44+2375.88+2918.85C2383.59+2907.27+2399.04+2891.83+2410.62+2880.25C2422.2+2868.66+2445.36+2860.94+2468.53+2833.92C2491.69+2806.9+2545.74+2687.22+2545.74+2687.22C2545.74+2687.22+2568.9+2710.39+2615.23+2729.69C2661.55+2748.99+2758.06+2772.16+2758.06+2779.87C2758.06+2787.59+2723.32+2826.2+2704.02+2857.08C2684.72+2887.97+2688.57+2918.85+2688.57+2972.9C2688.57+3026.94+2661.55+3111.88+2653.83+3135.04C2646.11+3158.2+2622.95+3165.92+2626.81+3196.81C2630.67+3227.69+2684.72+3235.42+2707.88+3235.42C2731.05+3235.42+2761.94+3243.13+2796.68+3254.71ZM2720.89+2294.58C2720.65+2295.98+2720.54+2297.45+2720.15+2298.72C2719.82+2300.03+2719.56+2301.44+2719.14+2302.46C2718.48+2304.72+2717.37+2306.85+2716.19+2308.99C2714.16+2312.31+2711.5+2315.54+2708.27+2318.57C2710.32+2311+2711.75+2303.16+2711.75+2297.3C2711.75+2290.26+2716.04+2284.64+2721.12+2278.72C2721.6+2284.39+2721.57+2289.76+2720.89+2294.58ZM3344.88+2007.76C3356.37+2003.93+3375.46+2019.1+3394.62+2019.33C3386.21+2028.94+3375.41+2036.83+3362.41+2042.65C3358.45+2044.31+3354.43+2045.96+3350.14+2047.27C3349.08+2047.6+3348.03+2047.96+3346.94+2048.28L3343.66+2049.17C3341.47+2049.83+3339.29+2050.23+3337.1+2050.76C3328.36+2052.7+3319.66+2053.45+3311.19+2053.26C3295.54+2052.74+3280.8+2048.18+3267.72+2039.68C3267.85+2039.13+3267.97+2038.57+3268.11+2038.03C3307.34+2023+3338.91+2009.75+3344.88+2007.76ZM3213.55+1919.33C3213.55+1919.32+3213.55+1919.31+3213.55+1919.3C3213.57+1919.19+3213.56+1919.26+3213.55+1919.33ZM3151.85+2077.25C3162.51+2074.44+3173.9+2071.07+3185.62+2067.34C3185.54+2067.46+3185.46+2067.6+3185.38+2067.72C3180.93+2074.73+3176.6+2079.72+3173.14+2083.34C3164.29+2092.47+3154.35+2098.55+3143.23+2101.73C3137.71+2103.35+3131.57+2104.26+3125.98+2104.32C3120.33+2104.4+3114.96+2103.81+3109.78+2102.3C3107.17+2101.65+3104.65+2100.6+3102.1+2099.57C3099.6+2098.38+3097.07+2097.19+3094.63+2095.62C3091.57+2093.77+3088.59+2091.55+3085.68+2089.1C3085.68+2089.07+3085.69+2089.04+3085.69+2089.01C3100.22+2088.13+3120.32+2085.55+3151.85+2077.25ZM3020.2+1954.78L3020.19+1954.77C3020.17+1954.7+3020.18+1954.72+3020.2+1954.78ZM2893.2+2100.41C2919.93+2100.41+2970.71+2100.41+3007.11+2097.85C3009.61+2101.85+3012.27+2105.8+3015.1+2109.68C3014.1+2113.27+3013.01+2116.81+3011.81+2120.26C3007.63+2132.29+3002.24+2143.29+2995.77+2152.21C2989.29+2161.16+2981.88+2167.86+2973.77+2172.15C2969.7+2174.31+2965.41+2175.9+2960.82+2176.97C2958.52+2177.49+2956.17+2177.93+2953.73+2178.17C2952.48+2178.39+2951.39+2178.37+2950.26+2178.43C2949.13+2178.49+2948.01+2178.61+2946.88+2178.5C2942.37+2178.53+2937.77+2177.77+2933.05+2176.52C2930.7+2176+2928.3+2175.05+2925.9+2174.27C2923.49+2173.23+2921.07+2172.35+2918.63+2171.07C2916.19+2169.99+2913.76+2168.51+2911.32+2167.2L2907.67+2164.94L2905.84+2163.81L2904.03+2162.56C2899.16+2159.38+2894.41+2155.54+2889.68+2151.71C2873.4+2137.92+2858.25+2121.33+2844.03+2103.81C2845.82+2099.31+2846.86+2096.55+2846.86+2096.55C2846.86+2096.55+2854.59+2100.41+2893.2+2100.41ZM2597.99+1903.43L2598+1903.27C2598.02+1903.07+2598.02+1902.87+2598.07+1902.67C2598.2+1901.89+2598.46+1901.08+2599.06+1900.55C2599.52+1899.91+2600.31+1899.57+2601.03+1899.36C2601.41+1899.27+2601.78+1899.17+2602.19+1899.25C2602.29+1899.24+2602.37+1899.21+2602.48+1899.16C2602.7+1899.2+2602.91+1899.22+2603.13+1899.23C2603.34+1899.23+2603.56+1899.23+2603.77+1899.2C2603.99+1899.19+2604.25+1899.3+2604.49+1899.32C2606.42+1899.56+2608.95+1900.18+2612.06+1901.7C2615.16+1903.22+2618.64+1905.4+2622.24+1908.03C2622.42+1908.18+2622.6+1908.33+2622.78+1908.47C2617.15+1909.64+2611.1+1909.59+2598.96+1911.15L2598.69+1909.76C2598.44+1908.73+2598.44+1907.91+2598.28+1906.98L2598.1+1905.65L2598.07+1904.69L2598+1903.73L2597.98+1903.49L2597.99+1903.43ZM2431.04+2286.52C2431.34+2285.93+2431.7+2285.39+2432.07+2284.84C2432.44+2284.3+2432.75+2283.74+2433.2+2283.23C2433.65+2282.65+2434.09+2282.08+2434.54+2281.52C2435.02+2280.94+2435.56+2280.39+2436.06+2279.83C2437.03+2278.68+2438.2+2277.66+2439.25+2276.59C2440.38+2275.58+2441.47+2274.56+2442.63+2273.61C2449.78+2267.72+2456.97+2263.26+2463.29+2259.61C2457.37+2283.37+2451.08+2306.49+2444.68+2320.61C2442.48+2319.06+2440.45+2317.45+2438.65+2315.79C2437.34+2314.69+2436.31+2313.49+2435.18+2312.36C2434.69+2311.77+2434.2+2311.19+2433.72+2310.61C2433.17+2310.02+2432.95+2309.54+2432.54+2309.02C2431.05+2306.99+2429.84+2304.75+2429.11+2302.39C2427.23+2296.91+2428.32+2291.01+2431.04+2286.52Z" opacity="1" fill="#000000"/>
</g>
</svg>
